Coordinates
version=1
nRows=15
nColumns=34
inDegrees=yes

Units are S.I. units (second, meters, Newtons, ...)
If the header above contains a line with 'inDegrees', this indicates whether rotational values are in degrees (yes) or radians (no).

endheader
time	pelvis_tilt	pelvis_list	pelvis_rotation	pelvis_tx	pelvis_ty	pelvis_tz	hip_flexion_r	hip_adduction_r	hip_rotation_r	knee_angle_r	ankle_angle_r	subtalar_angle_r	mtp_angle_r	hip_flexion_l	hip_adduction_l	hip_rotation_l	knee_angle_l	ankle_angle_l	subtalar_angle_l	mtp_angle_l	lumbar_extension	lumbar_bending	lumbar_rotation	arm_flex_r	arm_add_r	arm_rot_r	elbow_flex_r	pro_sup_r	arm_flex_l	arm_add_l	arm_rot_l	elbow_flex_l	pro_sup_l
      1.75000000	     -1.54449846	      2.49577978	     -0.77440037	     -1.01290038	      0.92770257	     -0.23457735	     26.58691887	     -0.44258105	     -1.56854620	    -40.54156707	      0.61227348	     -9.86852247	     17.58724738	     -2.36665529	      5.78938530	      0.40041488	     -9.29130213	     10.48482499	      0.68091813	      3.59548093	     -5.52870443	     -0.58047200	     -5.50012344	     -9.63139674	    -16.69355525	     -0.20535420	     25.13029651	     90.00000000	     -1.73575606	    -18.55563614	     12.23005468	     30.81819910	     90.00000000
      1.76000000	     -1.44927365	      2.34873465	     -0.61302615	     -1.00084015	      0.92717113	     -0.23389905	     26.58014776	     -0.43434806	     -1.94507608	    -36.85652056	      0.47474754	    -10.01311618	     17.49454525	     -3.77821783	      5.57079749	      0.59428521	     -8.42148809	     10.63962983	      0.77570210	      3.70393276	     -5.64972041	     -0.41201701	     -5.87847053	     -9.79969843	    -16.60198017	     -0.37978265	     24.66609256	     90.00000000	     -1.41173551	    -18.78702014	     12.05233067	     31.66453742	     90.00000000
      1.77000000	     -1.63122578	      2.46104002	     -0.54325927	     -0.98897577	      0.92586931	     -0.23315970	     26.90962892	     -0.62599664	     -2.05090393	    -33.21647529	      0.42389583	     -9.83168882	     17.40744093	     -4.77942748	      5.64231816	      0.60462515	     -7.73451146	     10.85287441	      0.92678175	      3.76504957	     -5.46244612	     -0.51588819	     -6.12375726	    -10.13102353	    -16.51612763	     -0.45885812	     24.62805403	     90.00000000	     -0.99330530	    -19.02516293	     11.87030115	     32.29866598	     90.00000000
      1.78000000	     -1.02209404	      2.17506373	     -0.37707968	     -0.97682662	      0.92593169	     -0.23221952	     25.98491189	     -0.44062225	     -2.54452942	    -28.98334041	      0.23923495	     -9.65008441	     17.10308137	     -6.73837934	      5.22611246	      0.63785453	     -6.85706306	     10.88031687	      1.19898198	      3.95469581	     -6.19067647	     -0.22647793	     -6.50468886	     -9.96901822	    -16.35483473	     -0.81080504	     23.67342559	     90.00000000	     -0.61734312	    -19.23355401	     11.64226926	     33.20466620	     90.00000000
      1.79000000	     -1.32606889	      2.34845322	     -0.27557561	     -0.96498731	      0.92423179	     -0.23129663	     26.29031439	     -0.64810901	     -2.53252706	    -25.29927809	      0.20675777	     -9.03162877	     17.01432636	     -7.50132580	      5.31999880	      0.62849492	     -6.37411400	     11.01140654	      1.36697198	      4.01688013	     -5.86322294	     -0.44474066	     -6.74229732	    -10.32998716	    -16.25380558	     -0.84592720	     23.68882893	     90.00000000	     -0.23636179	    -19.44808537	     11.51358692	     33.71372643	     90.00000000
      1.80000000	     -0.69676396	      2.06756202	     -0.17900736	     -0.95250137	      0.92404802	     -0.23028742	     25.25675630	     -0.44334979	     -2.97749333	    -21.23079091	      0.02466296	     -7.38576930	     16.60228068	     -9.45282229	      4.89024071	      0.46591353	     -5.58258047	     10.93517272	      1.85406765	      4.23484259	     -6.61681414	     -0.12772107	     -6.98784109	    -10.22318651	    -16.12575785	     -1.14530207	     22.85723362	     90.00000000	      0.14459017	    -19.60015334	     11.24855076	     34.57507665	     90.00000000
      1.81000000	     -0.81587918	      2.22335643	     -0.06989514	     -0.94032025	      0.92250438	     -0.22938078	     25.13577942	     -0.59465073	     -2.91143358	    -17.51851598	     -0.08593173	     -6.34818884	     16.42085264	    -10.37408822	      4.93841373	      0.59118487	     -5.20853207	     10.96718421	      2.16872429	      4.33196449	     -6.49048231	     -0.30474581	     -7.23959572	    -10.45199551	    -16.02467353	     -1.18705065	     22.74279683	     90.00000000	      0.51556252	    -19.74979885	     11.15299992	     35.03895895	     90.00000000
      1.82000000	     -0.96191327	      2.46946961	     -0.02422425	     -0.92781787	      0.92069681	     -0.22830183	     25.20358432	     -0.81862477	     -3.07364899	    -14.38152053	     -0.03587425	     -5.61383262	     16.32638596	    -11.26072636	      5.08912424	      0.49201712	     -4.87645786	     11.12049647	      2.32467968	      4.40410554	     -6.24443391	     -0.62229223	     -7.39700279	    -10.77870399	    -15.87655492	     -1.24088068	     22.61220281	     90.00000000	      0.86139775	    -19.88675400	     11.04537057	     35.40848089	     90.00000000
      1.83000000	     -0.03314848	      2.20401703	      0.11784471	     -0.91510015	      0.92067233	     -0.22730922	     23.87170569	     -0.62866892	     -3.88306657	    -11.13392385	      0.05637525	     -3.24439484	     15.65868650	    -13.35440379	      4.63256129	      0.40519448	     -4.42860473	     10.96050942	      2.99439793	      4.73690000	     -7.33805004	     -0.28718671	     -7.66844327	    -10.50689872	    -15.77567515	     -1.44403256	     21.80133611	     90.00000000	      1.30018415	    -20.00024425	     10.91901462	     36.06385351	     90.00000000
      1.84000000	      0.02862653	      2.31274843	      0.28905350	     -0.90228136	      0.91912591	     -0.22635568	     23.75137493	     -0.79244070	     -4.64227614	     -8.81561659	      1.49602498	     -0.63394938	     11.81864210	    -14.36111636	      4.58785397	      0.60469797	     -4.29357667	     10.68308905	      3.28695351	      6.25167752	     -7.36554925	     -0.40872672	     -8.01014107	    -10.69293484	    -15.71776129	     -1.17306306	     21.60680940	     90.00000000	      1.48908025	    -20.06244365	     10.54464311	     36.57588436	     90.00000000
      1.85000000	      0.09306552	      2.29995677	      0.40474068	     -0.88956722	      0.91772514	     -0.22510356	     23.56377446	     -0.71418226	     -4.93113612	     -6.69135560	      1.46599411	      0.13844710	     11.53473275	    -15.22063092	      4.41775025	      0.69300540	     -4.43924371	     10.70753737	      3.50101778	      6.51708576	     -7.39815216	     -0.40190266	     -8.18631049	    -10.74528639	    -15.55625960	     -1.36186340	     21.13378607	     90.00000000	      1.80335505	    -20.18431431	     10.60566323	     36.91333123	     90.00000000
      1.86000000	     -0.06474247	      2.41014368	      0.47239767	     -0.87675697	      0.91594177	     -0.22361192	     23.80494574	     -0.71164987	     -4.97698441	     -5.37833305	      1.58408547	      0.50852547	     11.50167979	    -15.71803758	      4.38827682	      0.65888876	     -4.82696035	     10.75723202	      3.53373711	      6.57790728	     -7.14382555	     -0.54242638	     -8.27700883	    -11.06114667	    -15.42921643	     -1.36091535	     21.17166911	     90.00000000	      2.05617502	    -20.22254317	     10.50060934	     37.18600099	     90.00000000
      1.87000000	     -0.02804156	      2.31888419	      0.63844769	     -0.86380541	      0.91454878	     -0.22239875	     23.70504711	     -0.57842379	     -5.08478717	     -4.31441441	      1.35868263	      1.33319389	     11.31725574	    -16.30787385	      4.12791229	      0.87420739	     -5.44953911	     10.78312276	      3.69822999	      6.79860160	     -7.13034809	     -0.42485487	     -8.53373948	    -11.06021389	    -15.35279225	     -1.45729393	     20.73740839	     90.00000000	      2.25681579	    -20.23531012	     10.44795654	     37.36883723	     90.00000000
      1.88000000	     -0.05583908	      2.35215434	      0.72245800	     -0.85058371	      0.91302918	     -0.22097935	     23.86226305	     -0.52094941	     -5.15556233	     -4.11540867	      1.45107114	      1.51280005	     11.30138213	    -16.76953447	      4.01906470	      0.88795982	     -6.16624391	     10.71859121	      3.75188298	      6.87276506	     -6.99654847	     -0.44902642	     -8.65182240	    -11.27151997	    -15.24489977	     -1.47959592	     20.78868233	     90.00000000	      2.38317140	    -20.24964588	     10.34576828	     37.64949056	     90.00000000
      1.89000000	      0.21602866	      2.22110789	      1.01156960	     -0.83704327	      0.91210396	     -0.21994939	     23.52005975	     -0.39757550	     -5.36332741	     -4.21448164	      1.54425718	      1.78821885	     11.13210663	    -17.44939738	      3.66911386	      1.01081694	     -7.10438144	     10.67858007	      4.15550889	      7.34843647	     -7.16958234	     -0.23683820	     -9.10340560	    -11.04674953	    -15.18370853	     -1.50553671	     19.92641983	     90.00000000	      2.43775799	    -20.23304338	     10.13891688	     37.80206583	     90.00000000
